<svg xmlns="http://www.w3.org/2000/svg" viewBox="0 0 30 16"><path d="M0,0H30V16H0Z" style="fill:#74acdf"/><path d="M0,5.33H30v5.34H0Z" style="fill:#fff"/><path d="M17.18,8l-1.43,0c.29,0,.45-.17.72-.15A.89.89,0,0,0,17,7.61c.11,0,.17,0,.19,0s-.07-.1-.22-.08-.19.14-.52.11-.4.1-.62.1L17,7.2a0,0,0,0,0,0,0s0,0,0,0l-1.35.5c.27-.1.35-.33.6-.41a.92.92,0,0,0,.43-.35c.08-.07.17,0,.17-.06s-.1-.06-.23,0-.13.2-.44.3-.33.24-.54.33l.91-1s0,0,0-.05-.05,0-.05,0l-1,1c.2-.2.2-.44.4-.61a1,1,0,0,0,.26-.49c.05-.1.14-.09.13-.12s-.11,0-.21.1,0,.23-.29.44-.21.35-.37.51L15.86,6s0,0,0,0,0,0,0,0l-.6,1.3c.11-.27,0-.49.14-.72A.93.93,0,0,0,15.4,6c0-.11.1-.14.08-.16s-.11,0-.15.17.05.23-.1.52-.07.4-.15.61L15,5.82s0,0,0,0,0,0,0,0l-.05,1.43c0-.29-.17-.45-.15-.71A1,1,0,0,0,14.61,6c0-.11,0-.17,0-.18s-.1.06-.08.21.13.2.11.52.09.4.1.62L14.19,6s0,0,0,0,0,0,0,0l.5,1.35c-.11-.27-.33-.36-.41-.61a.9.9,0,0,0-.35-.42c-.07-.09,0-.17-.06-.18s-.07.1,0,.24.2.12.3.44.24.32.32.53l-1-.9s0,0-.05,0,0,.05,0,.05l1,1c-.2-.2-.44-.2-.61-.4a.85.85,0,0,0-.48-.26c-.1-.06-.09-.15-.13-.14s0,.12.1.21.23,0,.45.29.34.21.5.37L13,7.14s0,0-.05,0,0,0,0,0l1.3.6c-.27-.11-.49,0-.72-.14A.93.93,0,0,0,13,7.6c-.11,0-.14-.1-.16-.08s0,.11.17.15.23,0,.52.1.4.07.61.15L12.82,8s0,0,0,0,0,0,0,0l1.43.05c-.29,0-.45.17-.71.15a1,1,0,0,0-.53.16c-.11,0-.17,0-.18,0s.06.1.21.08.2-.14.52-.11.4-.09.62-.1L13,8.81s0,0,0,0,.05,0,.05,0l1.34-.5c-.27.11-.35.33-.6.41a.87.87,0,0,0-.43.35c-.09.07-.17,0-.17.06s.1.06.23,0,.12-.2.44-.3.33-.24.53-.33l-.9,1s0,0,0,.05.05,0,.05,0l1-1c-.2.2-.19.44-.39.61a1,1,0,0,0-.27.49c0,.1-.14.09-.13.12s.11,0,.21-.1,0-.23.29-.44.21-.35.37-.51L14.15,10s0,0,0,.05,0,0,0,0l.6-1.3c-.11.27,0,.49-.14.72a.94.94,0,0,0-.05.55c0,.11-.1.14-.08.16s.11,0,.15-.17,0-.22.1-.52.07-.4.15-.61L15,10.18s0,0,0,0,0,0,0,0l.05-1.43c0,.29.17.45.15.72a.89.89,0,0,0,.16.52c0,.11,0,.17,0,.19s.1-.07.08-.22-.14-.2-.11-.52-.09-.4-.1-.62l.56,1.2s0,0,0,0,0-.05,0-.05l-.5-1.34c.1.27.33.35.41.6a.87.87,0,0,0,.35.43c.07.09,0,.17.06.17s.06-.1,0-.23-.2-.12-.3-.44-.24-.33-.33-.53l1,.9s0,0,0,0,0-.05,0-.05l-1-1c.2.2.44.2.61.4a1,1,0,0,0,.49.26c.1,0,.09.14.12.13s0-.11-.1-.21-.23,0-.44-.29-.35-.21-.51-.37L17,8.85s0,0,0,0,0,0,0,0l-1.3-.6c.26.12.48,0,.72.14a.93.93,0,0,0,.55.05c.11,0,.14.1.16.08s0-.11-.17-.15-.23,0-.52-.1-.4-.07-.61-.15L17.19,8s0,0,0,0S17.18,8,17.18,8Zm-1.45,0h-.26l.26-.13Zm-.09-.28-.25.1.2-.22Zm-.18-.21-.2.18.1-.28Zm-.26-.14-.11.24V7.24Zm-.29,0v.26l-.12-.26Zm-.27.09.09.25-.21-.2Zm-.22.18.18.2-.27-.1Zm-.13.26.24.11h-.29Zm0,.28h.26l-.27.13Zm.08.28.25-.1-.2.22Zm.19.21.19-.17-.1.27Zm.25.14.11-.24v.29Zm.29,0V8.47l.12.26Zm.27-.09-.09-.24.22.2Zm.22-.18-.17-.2.27.1Zm.13-.26-.24-.11h.3Z" style="fill:#f6b40e"/><path d="M17.24,8a0,0,0,0,0-.06,0L16,7.91l.15,0a.8.8,0,0,1,.34-.07.71.71,0,0,0,.45-.12l.09,0a.15.15,0,0,1,.13,0s.05,0,.06,0a0,0,0,0,0,0,0A.28.28,0,0,0,17,7.52l-.14.05a.63.63,0,0,1-.38.06.78.78,0,0,0-.37.06l-.17,0L17,7.21a0,0,0,1,0,0-.09h0l-1.14.43L16,7.44a.72.72,0,0,1,.29-.2A.74.74,0,0,0,16.64,7l.06-.07a.19.19,0,0,1,.12,0s.06,0,.06,0a.08.08,0,0,0,0,0,.29.29,0,0,0-.24,0l-.1.09a.63.63,0,0,1-.33.2.94.94,0,0,0-.32.19l-.15.11.85-.92s0-.05,0-.07h0a0,0,0,0,0-.07,0h0l-.89.83.07-.15a.72.72,0,0,1,.2-.29.74.74,0,0,0,.23-.4l0-.1a.39.39,0,0,1,.1-.08s.06,0,.05-.05,0,0,0,0a.27.27,0,0,0-.2.12A.31.31,0,0,0,16,6.4a.64.64,0,0,1-.23.31.89.89,0,0,0-.22.3.86.86,0,0,1-.1.16L15.88,6a.06.06,0,0,0,0-.07h0a.06.06,0,0,0-.07,0l-.51,1.11c0-.05,0-.11,0-.16a.83.83,0,0,1,.06-.35.65.65,0,0,0,.07-.45.38.38,0,0,1,0-.1.23.23,0,0,1,.06-.12s0,0,0-.06,0,0,0,0a.24.24,0,0,0-.14.19.61.61,0,0,0,0,.14.65.65,0,0,1-.09.38.74.74,0,0,0-.09.36.57.57,0,0,1,0,.18l0-1.25A.08.08,0,0,0,15,5.75a.06.06,0,0,0-.05.06l0,1.22s0-.1-.05-.15a.71.71,0,0,1-.07-.35.68.68,0,0,0-.12-.44.36.36,0,0,1,0-.09.15.15,0,0,1,0-.13s0,0,0-.06h-.05a.28.28,0,0,0-.06.23.78.78,0,0,0,.05.14.63.63,0,0,1,.06.38.78.78,0,0,0,.06.37,1.36,1.36,0,0,1,0,.17L14.21,6a0,0,0,1,0-.09,0h0l.43,1.14L14.45,7a.72.72,0,0,1-.2-.29A.74.74,0,0,0,14,6.36l-.08-.06a.28.28,0,0,1,0-.12s0-.06,0-.06l0,0a.23.23,0,0,0,0,.23.52.52,0,0,0,.1.11.63.63,0,0,1,.2.33.8.8,0,0,0,.19.32l.11.15-.92-.86a.08.08,0,0,0-.08,0h0a0,0,0,0,0,0,.07l.83.89-.14-.07a.75.75,0,0,1-.3-.2.68.68,0,0,0-.4-.23l-.09,0a.16.16,0,0,1-.08-.1s0,0-.06,0l0,0a.3.3,0,0,0,.13.2L13.4,7a.62.62,0,0,1,.32.23.84.84,0,0,0,.3.22l.15.09L13,7.12a.06.06,0,0,0-.07,0h0a.06.06,0,0,0,0,.07l1.11.51-.16,0a.83.83,0,0,1-.35-.06.65.65,0,0,0-.45-.07H13a.23.23,0,0,1-.12-.06s0,0-.06,0,0,0,0,0a.24.24,0,0,0,.19.14h.14a.65.65,0,0,1,.38.09.74.74,0,0,0,.36.09.57.57,0,0,1,.18,0L12.81,8s-.06,0-.06,0a.06.06,0,0,0,.06.05l1.22,0-.15.05a.71.71,0,0,1-.35.07.73.73,0,0,0-.45.12l-.08,0a.15.15,0,0,1-.13,0s0,0-.06,0a0,0,0,0,0,0,.05.28.28,0,0,0,.23.06l.14-.05a.63.63,0,0,1,.38-.06.78.78,0,0,0,.37-.06l.17,0L13,8.79a.06.06,0,0,0,0,.07.05.05,0,0,0,0,0h0l1.14-.43-.12.1a.72.72,0,0,1-.29.2.74.74,0,0,0-.37.28l-.06.08a.28.28,0,0,1-.12,0s-.06,0-.06,0a.05.05,0,0,0,0,0,.23.23,0,0,0,.23,0,.52.52,0,0,0,.11-.1.63.63,0,0,1,.33-.2.8.8,0,0,0,.32-.19l.15-.11-.86.92a.08.08,0,0,0,0,.08h0l.05,0,.89-.83-.07.14a.69.69,0,0,1-.2.3.68.68,0,0,0-.23.4.36.36,0,0,1,0,.09.14.14,0,0,1-.1.08s-.05,0,0,.06l0,0a.28.28,0,0,0,.2-.13A.34.34,0,0,0,14,9.6a.68.68,0,0,1,.23-.32.73.73,0,0,0,.22-.3l.09-.15L14.12,10a.06.06,0,0,0,0,.07h0a.05.05,0,0,0,.05,0l.51-1.11c0,.05,0,.11,0,.16a.79.79,0,0,1-.06.34.68.68,0,0,0-.07.46.21.21,0,0,1-.05.22s0,0,0,.06,0,0,0,0a.25.25,0,0,0,.14-.19.66.66,0,0,0,0-.14.65.65,0,0,1,.09-.38.77.77,0,0,0,.09-.36.57.57,0,0,1,0-.18l0,1.25a.06.06,0,0,0,.05.06.05.05,0,0,0,.05-.05l0-1.22s0,.1.05.15a.71.71,0,0,1,.07.35.7.7,0,0,0,.12.44.36.36,0,0,1,0,.09.15.15,0,0,1,0,.13s0,0,0,.06h.05a.26.26,0,0,0,.06-.23.69.69,0,0,0-.05-.13.63.63,0,0,1-.06-.38.76.76,0,0,0-.06-.37,1,1,0,0,1,0-.17L15.79,10a.07.07,0,0,0,.07,0,.07.07,0,0,0,0-.07h0l-.43-1.14.1.12a.72.72,0,0,1,.2.29.74.74,0,0,0,.28.37l.08.06a.28.28,0,0,1,0,.12s0,.06,0,.06h0l0,0a.24.24,0,0,0,0-.23.31.31,0,0,0-.09-.11.63.63,0,0,1-.2-.33.94.94,0,0,0-.19-.32l-.11-.15.92.86a.06.06,0,0,0,.07,0h0a.06.06,0,0,0,0-.07l-.83-.89.14.07a.72.72,0,0,1,.29.2.74.74,0,0,0,.4.23l.1,0a.14.14,0,0,1,.08.1s0,0,0,0h0a.05.05,0,0,0,0,0,.24.24,0,0,0-.12-.2A.31.31,0,0,0,16.59,9a.64.64,0,0,1-.31-.23.93.93,0,0,0-.3-.22l-.16-.09L17,8.88a.06.06,0,0,0,.07,0h0a.06.06,0,0,0,0-.07l-1.11-.51.16,0a.83.83,0,0,1,.35.06.65.65,0,0,0,.45.07H17a.23.23,0,0,1,.12.06l0,0h0s0,0,0,0-.07-.11-.19-.14h-.14a.65.65,0,0,1-.38-.09.74.74,0,0,0-.36-.09l-.18,0,1.25,0A.06.06,0,0,0,17.24,8Zm-1.16-.28a.83.83,0,0,1,.35,0,.61.61,0,0,0,.4-.07l.13,0a.21.21,0,0,1,.19,0h0a.26.26,0,0,0-.15,0l-.1,0a.68.68,0,0,1-.42.11.73.73,0,0,0-.36.07.9.9,0,0,1-.22.06v0c.22,0,.35-.16.58-.13-.18-.06-.34.06-.59.08v0Zm-.25.46s0,0,0,0a.32.32,0,0,1-.09,0l-.19-.08h.31v0h0l0,.05Zm-.13.3,0,0a.46.46,0,0,1-.07-.07l-.14-.15.27.1h0v0l0,0,0,0a.1.1,0,0,0,0,0Zm-.22.17h-.05l0,.05,0,0a.41.41,0,0,1,0-.09l-.07-.19.21.2h0l0,0,0,0Zm-.29.13h0a.13.13,0,0,0,0,.06h0s0-.06,0-.09V8.54l.12.27h0V8.78Zm-.36,0a.11.11,0,0,0,0,.05h0l0-.09.08-.19v.29h0s0,0,0,0Zm-.28-.13,0,0,0,0,.06-.07.15-.14-.1.27h0l0,0,0,0Zm-.22-.22-.05,0,0,0,.09,0,.19-.08-.2.22h0l0,0,0,0Zm-.17-.28v0h.3l-.27.12h0v0h.05V8.14h-.06Zm0-.33a0,0,0,0,1,0,0l.09,0,.19.09h-.31s0,0,0,0h0l0,0h-.06Zm.13-.3,0,0,.08.06.14.15-.27-.1h0v0l0,0,0,0,0,0Zm.22-.16.05,0,0,0,0,0a.41.41,0,0,1,0,.09l.07.19-.21-.2h0l0,0Zm.29-.13h0a.13.13,0,0,0,0-.06h0a.34.34,0,0,1,0,.1v.2l-.12-.26h0S14.81,7.2,14.81,7.22Zm.36,0a.13.13,0,0,0,0-.06h0a.32.32,0,0,1,0,.09l-.08.19V7.15h0a.06.06,0,0,1,0,0Zm.28.12a.1.1,0,0,0,0,0l0,0-.06.07-.15.14.1-.27h0s0,0,0,0Zm.22.22.05,0,0,0-.09,0-.19.07.2-.21h0l0,0,0,0Zm.06.2-.27.12h-.08l.43-.19v0h-.07v0ZM15.31,8h-.08l.08,0h.08Zm-.23.35v.08l0-.08V8.24Zm-.12,0,0,.07V8.31l0-.08Zm-.27-.4.08,0h-.09l-.07,0Zm0-.14.08,0,.05.05-.08,0Zm0,.26h.08l-.08,0h-.08Zm0,.12.07,0-.06.06-.07,0Zm.08.09.06-.05,0,.07-.06.06Zm0-.51,0-.07.06.06,0,.07Zm.32.06,0-.08.06,0,0,.07Zm.14,0-.07,0,.06-.06.07,0Zm-.22-.07V7.68l0-.07v.08Zm-.1,0,0-.08V7.61l0,.08Zm.18.43.06.06,0,.07-.06-.06Zm.07-.07.08,0,.05.06-.08,0Zm0-.08h.09l.07,0h-.08Zm.12-.24.06-.06.24-.09h0l.1,0s0,0,0,0Zm.29-.36-.06,0v0h0l-.2.22-.08,0,.32-.34,0,0Zm-.39.24,0-.08.19-.17h0s0,0,0,0l.08-.07,0,0Zm.13-.44-.05,0,0,0h0l-.1.27-.06.06.17-.44,0,0Zm-.27.37V7.54l.11-.24h0v0l0-.1h0Zm0-.46,0,.06,0,0h0v.29l0,.07,0-.46h0ZM15,7.6l0-.07V7.27h0s0,0,0,0V7.14h0Zm-.23-.4v.07h0l.12.27v.07l-.2-.41h0Zm.08.45-.06-.05-.09-.25h0l0-.1s0,0,0,0Zm-.36-.28s0,0,0,.06h0l.22.2,0,.07-.34-.31,0,0Zm.24.38-.07,0-.18-.19h0l-.07-.08,0,0Zm-.44-.12,0,0,0,0h0l.28.1.05.06-.44-.16,0,0Zm.37.26h-.08l-.24-.11h0l-.1,0a.08.08,0,0,1,0,0Zm-.46.05.06,0v0h.3l.07,0-.46,0v0Zm.45.1-.08,0h-.38s0,0,0,0Zm-.4.23h.06v0h0l.27-.13h.08l-.43.2v0Zm.44-.08-.05.06-.25.09h0l-.1,0,0,0Zm-.28.36.06,0,0,0h0l.2-.22.08,0-.32.34,0,0Zm.38-.24,0,.08-.19.17h0v0l-.08.07,0,0Zm-.12.45,0,0,0,0h0l.1-.27.06-.06-.16.44,0,0Zm.26-.38v.09l-.11.23h0v0l0,.1h0Zm0,.46,0-.05,0,0h0v-.3l0-.07,0,.47h0ZM15,8.4l0,.07v.26h0v.13h0Zm.23.4V8.73h0l-.13-.26V8.39l.2.42h0Zm-.08-.45.06.06.09.24h0v0l0,.1,0,0Zm.36.29a.14.14,0,0,0,0-.06h0l-.22-.2,0-.07.33.32,0,0Zm-.24-.39.08,0,.17.19h0l.07.08,0,0Zm.45.13,0-.05,0,0h0l-.27-.1-.06-.06.44.17s0,0,0,0Zm-.38-.27h.09l.23.11h0l.1,0a.06.06,0,0,1,0,0Zm.46,0-.05,0,0,0h-.3L15.4,8l.46,0v0ZM15.4,8l.07,0h.39V8Zm.35-.06h-.2l.26-.12h0v0h0v.06h.05s0,0,0,0ZM17,7.16h0l0,0-1.16.53a0,0,0,0,0,0,0l.54-.25-.55.2s0,0,0,0Zm-1.13.17a.81.81,0,0,1,.31-.18.68.68,0,0,0,.35-.22l.1-.09a.21.21,0,0,1,.19,0h0a.24.24,0,0,0-.14.05l-.07.08a.71.71,0,0,1-.35.27.72.72,0,0,0-.31.2,1.24,1.24,0,0,1-.18.14l0,0c.19-.13.26-.28.49-.35-.2,0-.29.19-.52.3v0a.66.66,0,0,0,.17-.12Zm.65-.88h0s0,0,0,0l-.87.94s0,0,0,0l.4-.43-.43.4,0,0Zm-1,.59a.86.86,0,0,1,.21-.29A.61.61,0,0,0,16,6.42a.34.34,0,0,1,.06-.12.21.21,0,0,1,.16-.11h0a.22.22,0,0,0-.11.1l0,.1a.63.63,0,0,1-.23.38.79.79,0,0,0-.2.31,2,2,0,0,1-.11.2l0,0c.12-.18.13-.35.32-.5-.18.09-.2.29-.36.48l0,0A.94.94,0,0,0,15.57,7ZM15.83,6s0,0,0,0V6l-.45,1.2,0,0,.21-.55-.25.53h0Zm-.67.92a.7.7,0,0,1,.09-.35.7.7,0,0,0,.09-.4.53.53,0,0,1,0-.13.25.25,0,0,1,.11-.17h0l0,0a.22.22,0,0,0-.06.14.34.34,0,0,0,0,.1.83.83,0,0,1-.06.44.73.73,0,0,0-.08.36,1.64,1.64,0,0,1,0,.22h0c0-.21,0-.38.1-.58-.13.15-.08.34-.15.57h0a.76.76,0,0,0,0-.21ZM15,5.82s0,0,0,0,0,0,0,0l.05,1.28h0l0-.59,0,.59h0Zm-.27,1.1a.9.9,0,0,1-.05-.36.68.68,0,0,0-.06-.4.61.61,0,0,1,0-.12.28.28,0,0,1,0-.2h0v0a.25.25,0,0,0,0,.15l.05.09a.61.61,0,0,1,.11.43.78.78,0,0,0,.08.36l.06.21h0c0-.22-.16-.35-.13-.58-.07.19.06.34.08.59h0a.78.78,0,0,0,0-.22Zm-.56-1,0,0,.53,1.16h0l-.25-.54.21.55,0,0L14.16,6V6Zm.17,1.15a1,1,0,0,1-.18-.31.68.68,0,0,0-.22-.35.39.39,0,0,1-.08-.1.22.22,0,0,1,0-.19h0v0a.24.24,0,0,0,0,.14l.08.07a.71.71,0,0,1,.27.35.72.72,0,0,0,.2.31.75.75,0,0,1,.14.17l0,0c-.12-.19-.28-.27-.34-.49,0,.2.18.29.3.51l0,0a.66.66,0,0,0-.12-.17Zm-.88-.65v0s0,0,0,0l.94.87,0,0-.44-.4.4.43,0,0Zm.59,1a.86.86,0,0,1-.29-.21A.61.61,0,0,0,13.42,7l-.11-.06a.25.25,0,0,1-.11-.16h0v0a.26.26,0,0,0,.1.11l.1,0a.74.74,0,0,1,.38.22.69.69,0,0,0,.3.21l.2.11s0,0,0,0c-.19-.12-.36-.13-.5-.32.08.18.28.2.47.36,0,0,0,0,0,0A.71.71,0,0,0,14,7.43ZM13,7.17s0,0,0,0h0l1.2.45s0,0,0,0l-.55-.21.54.25a.08.08,0,0,1,0,0Zm.92.67a.73.73,0,0,1-.35-.09.7.7,0,0,0-.4-.09H13a.21.21,0,0,1-.16-.11h0v0a.25.25,0,0,0,.14.06h.1a.82.82,0,0,1,.44.06.76.76,0,0,0,.36.08l.23,0s0,0,0,0c-.22,0-.39,0-.59-.1.15.13.34.08.58.15a0,0,0,0,1,0,0l-.21,0ZM12.82,8h0l1.28,0s0,0,0,0L13.5,8l.59,0v0Zm1.1.27a.87.87,0,0,1-.36.05.7.7,0,0,0-.4.06l-.12,0a.25.25,0,0,1-.19,0h0a.2.2,0,0,0,.15,0l.1,0a.57.57,0,0,1,.42-.11,1,1,0,0,0,.37-.08l.21-.06s0,0,0,0c-.22,0-.35.16-.58.13.18.06.34-.06.59-.08a.08.08,0,0,0,0,0,.78.78,0,0,0-.22,0ZM13,8.84h0l0,0,1.17-.53v0l-.54.25.56-.21,0,0Zm1.12-.17a1,1,0,0,1-.31.18.73.73,0,0,0-.35.21.28.28,0,0,1-.1.09.21.21,0,0,1-.19,0h0a.26.26,0,0,0,.15,0,.27.27,0,0,1,.07-.08.63.63,0,0,1,.35-.27.69.69,0,0,0,.3-.21l.18-.13,0,0c-.18.12-.26.28-.49.34.2,0,.3-.18.52-.3,0,0,0,0,0,0a.66.66,0,0,0-.17.12Zm-.65.88h0s0,0,0,0l.87-.94,0,0-.4.43.43-.4,0,0Zm1-.59a.74.74,0,0,1-.21.28.69.69,0,0,0-.24.34.24.24,0,0,1-.06.11.21.21,0,0,1-.16.11h0a.18.18,0,0,0,.11-.1.3.3,0,0,0,0-.1.6.6,0,0,1,.22-.38.72.72,0,0,0,.2-.31l.11-.19,0,0c-.13.19-.14.36-.32.5.17-.08.2-.28.36-.47l0,0a1.13,1.13,0,0,0-.12.18ZM14.17,10h0s0,0,0,0l.44-1.2,0,0-.21.55.25-.54h0Zm.67-.92a.85.85,0,0,1-.08.35.63.63,0,0,0-.1.4.57.57,0,0,1,0,.13.25.25,0,0,1-.12.16h0a.27.27,0,0,0,.07-.14.38.38,0,0,1,0-.1.66.66,0,0,1,.06-.44.89.89,0,0,0,.07-.36.91.91,0,0,1,0-.23h0c-.05.22,0,.39-.11.59.14-.15.08-.34.16-.58h0a.52.52,0,0,0,0,.21ZM15,10.18s0,0,0,0,0,0,0,0L14.94,8.9h0l0,.59,0-.59h0Zm.27-1.1a.83.83,0,0,1,.05.35.61.61,0,0,0,.07.4.65.65,0,0,1,0,.13.25.25,0,0,1,0,.19h0v0a.29.29,0,0,0,0-.16l-.05-.09a.69.69,0,0,1-.11-.43.92.92,0,0,0-.07-.36.83.83,0,0,1-.06-.21h0c0,.22.15.35.12.58.07-.19-.06-.34-.08-.59h0a.78.78,0,0,0,0,.22Zm.56,1v0l-.54-1.17h0l.24.54-.2-.56,0,0,.44,1.2v0Zm-.17-1.15a.75.75,0,0,1,.18.31.72.72,0,0,0,.22.35.45.45,0,0,1,.09.1.21.21,0,0,1,0,.19h0v0a.25.25,0,0,0-.05-.15l-.08-.07a.63.63,0,0,1-.27-.35.75.75,0,0,0-.2-.3l-.14-.18,0,0c.13.18.28.26.34.49,0-.2-.18-.3-.3-.52l0,0a.57.57,0,0,0,.12.18Zm.89.67h0l-.94-.87,0,0,.43.4-.4-.44s0,0,0,0l.87.94s0,0,0,0Zm-.6-1a.86.86,0,0,1,.29.21.66.66,0,0,0,.33.24.34.34,0,0,1,.12.06.23.23,0,0,1,.1.16h0v0a.16.16,0,0,0-.1-.11l-.1,0a.67.67,0,0,1-.38-.22.75.75,0,0,0-.3-.2l-.2-.11s0,0,0,0c.18.13.36.14.5.32-.09-.17-.28-.2-.47-.36,0,0,0,0,0,0a1.22,1.22,0,0,0,.19.12ZM17,8.84h0l-1.2-.44,0,0,.55.21-.54-.25a.06.06,0,0,1,0,0L17,8.83Zm-.94-.69a1.06,1.06,0,0,1,.35.09.63.63,0,0,0,.4.1H17a.27.27,0,0,1,.16.11v0A.27.27,0,0,0,17,8.38h-.1a.66.66,0,0,1-.44-.06.75.75,0,0,0-.36-.07.91.91,0,0,1-.23,0s0,0,0,0c.22.05.39,0,.59.1-.15-.13-.34-.07-.58-.15a0,0,0,0,1,0,0A.78.78,0,0,0,16.1,8.15Zm-.2-.1s0,0,0,0l.59,0-.59,0s0,0,0,0l1.28,0h0Z" style="fill:#85340a"/><circle cx="15" cy="8" r="0.89" style="fill:#f6b40e"/><path d="M15.31,7.77a.17.17,0,0,0-.15.05s-.06,0-.06,0,0,0,0,0a.24.24,0,0,0,.08-.06.27.27,0,0,1,.12,0c.13,0,.19.1.21.09A.22.22,0,0,0,15.31,7.77Z" style="fill:#85340a"/><path d="M15.3,7.81a.18.18,0,0,0-.15.08.27.27,0,0,0,.32,0A.26.26,0,0,0,15.3,7.81Zm0,0a.13.13,0,0,1,.12.06.18.18,0,0,1-.25,0A.17.17,0,0,1,15.3,7.82Z" style="fill:#843511"/><circle cx="15.3" cy="7.88" r="0.06" style="fill:#85340a"/><path d="M15.48,7.92a.27.27,0,0,1-.3,0c-.07,0-.07-.06-.06-.06s0,0,.08,0A.39.39,0,0,0,15.48,7.92Z" style="fill:#85340a"/><path d="M14.87,8.12a.07.07,0,0,0-.06.07s0,.06.07.06a.05.05,0,0,0,0,0l.07,0h0l.07,0a.06.06,0,0,0,.09,0,.07.07,0,0,0,0-.09l0,0s0,0,0,0a0,0,0,0,1,0,0,0,0,0,0,1,0,0h0a.09.09,0,0,1-.12.05.08.08,0,0,1-.05-.05,0,0,0,0,1,0,0h0a0,0,0,0,1,0,0,.05.05,0,0,1,0,0Zm.06.19c-.07,0-.1.06-.16.1l.11-.07s.09,0,.12,0,.07,0,.12,0l.11.07c-.07,0-.09-.1-.16-.1l-.07,0s0,0-.07,0Z" style="fill:#85340a"/><path d="M14.91,8.39l-.12,0c.13,0,.15,0,.21,0s.08,0,.2,0a.34.34,0,0,0-.2,0Z" style="fill:#85340a"/><path d="M14.8,8.41h0c.15,0,.08.1.23.1s.08-.09.23-.1c-.15,0-.1.07-.23.07S14.92,8.41,14.8,8.41Zm.32.22a.12.12,0,1,0-.24,0,.13.13,0,0,1,.15-.1A.12.12,0,0,1,15.12,8.63Z" style="fill:#85340a"/><path d="M14.69,7.77a.17.17,0,0,1,.15.05s.07,0,.07,0,0,0,0,0a.24.24,0,0,1-.08-.06.28.28,0,0,0-.13,0c-.12,0-.19.1-.2.09A.21.21,0,0,1,14.69,7.77Z" style="fill:#85340a"/><path d="M14.45,7.81a.35.35,0,0,1,.46-.06.21.21,0,0,1,.05.12.32.32,0,0,1-.07.25h0A.49.49,0,0,0,15,7.82a.19.19,0,0,0,0-.08.32.32,0,0,0-.46,0,.1.1,0,0,0,0,0Z" style="fill:#85340a"/><path d="M14.69,7.81a.18.18,0,0,0-.15.08.27.27,0,0,0,.32,0A.26.26,0,0,0,14.69,7.81Zm0,0a.13.13,0,0,1,.12.06.18.18,0,0,1-.25,0A.17.17,0,0,1,14.69,7.82Z" style="fill:#843511"/><path d="M14.53,7.92a.27.27,0,0,0,.3,0c.07,0,.07-.06.05-.06L14.8,8A.36.36,0,0,1,14.53,7.92Z" style="fill:#85340a"/><circle cx="14.7" cy="7.88" r="0.06" style="fill:#85340a"/><path d="M15.56,7.81a.37.37,0,0,0-.47-.06.61.61,0,0,0-.05.12.37.37,0,0,0,.07.25h0A.5.5,0,0,1,15,7.82s0-.05,0-.08a.33.33,0,0,1,.47,0,.1.1,0,0,1,0,0Z" style="fill:#85340a"/><circle cx="15" cy="8" r="0.89" style="fill:none;stroke:#85340a;stroke-miterlimit:10;stroke-width:0.029999999329447746px"/></svg>
